<?xml version="1.0" encoding="UTF-8" standalone="no"?>
<!-- Created with Inkscape (http://www.inkscape.org/) -->

<svg
   xmlns:dc="http://purl.org/dc/elements/1.1/"
   xmlns:cc="http://creativecommons.org/ns#"
   xmlns:rdf="http://www.w3.org/1999/02/22-rdf-syntax-ns#"
   xmlns:svg="http://www.w3.org/2000/svg"
   xmlns="http://www.w3.org/2000/svg"
   xmlns:sodipodi="http://sodipodi.sourceforge.net/DTD/sodipodi-0.dtd"
   xmlns:inkscape="http://www.inkscape.org/namespaces/inkscape"
   width="71.689453"
   height="30"
   viewBox="0 0 18.967834 7.9375001"
   version="1.1"
   id="svg8"
   inkscape:version="0.92.3 (2405546, 2018-03-11)"
   sodipodi:docname="community-short.svg">
  <defs
     id="defs2" />
  <sodipodi:namedview
     id="base"
     pagecolor="#ffffff"
     bordercolor="#666666"
     borderopacity="1.0"
     inkscape:pageopacity="0.0"
     inkscape:pageshadow="2"
     inkscape:zoom="19.026508"
     inkscape:cx="35.844729"
     inkscape:cy="7.7392575"
     inkscape:document-units="mm"
     inkscape:current-layer="layer1"
     showgrid="false"
     units="px"
     fit-margin-top="0"
     fit-margin-left="0"
     fit-margin-right="0"
     fit-margin-bottom="0"
     inkscape:window-width="1920"
     inkscape:window-height="1016"
     inkscape:window-x="0"
     inkscape:window-y="27"
     inkscape:window-maximized="1" />
  <metadata
     id="metadata5">
    <rdf:RDF>
      <cc:Work
         rdf:about="">
        <dc:format>image/svg+xml</dc:format>
        <dc:type
           rdf:resource="http://purl.org/dc/dcmitype/StillImage" />
        <dc:title></dc:title>
      </cc:Work>
    </rdf:RDF>
  </metadata>
  <g
     inkscape:label="Layer 1"
     inkscape:groupmode="layer"
     id="layer1"
     transform="translate(-87.415115,-39.673144)">
    <path
       style="font-style:normal;font-weight:normal;font-size:5.29166651px;line-height:6.61458302px;font-family:sans-serif;letter-spacing:0.5291667px;word-spacing:0px;fill:#000000;fill-opacity:1;stroke:none;stroke-width:0.99999994"
       d="M 0 7.2617188 L 0 22.457031 L 1.8066406 22.457031 L 1.8066406 17.115234 L 7.3632812 22.457031 L 9.7070312 22.457031 L 3.6621094 16.636719 L 9.4628906 11.519531 L 7.1679688 11.519531 L 1.8066406 16.236328 L 1.8066406 7.2617188 L 0 7.2617188 z M 18.142578 7.6132812 C 16.697267 7.6132812 15.557942 7.9518215 14.724609 8.6289062 C 13.897785 9.3059885 13.484375 10.227214 13.484375 11.392578 C 13.484375 12.225911 13.71875 12.932289 14.1875 13.511719 C 14.66276 14.091151 15.323567 14.485032 16.169922 14.693359 C 15.219401 14.914714 14.477213 15.347657 13.943359 15.992188 C 13.409506 16.63672 13.142578 17.42448 13.142578 18.355469 C 13.142578 19.768228 13.572267 20.852212 14.431641 21.607422 C 15.297525 22.362629 16.534505 22.740234 18.142578 22.740234 C 19.750651 22.740234 20.984376 22.362629 21.84375 21.607422 C 22.709637 20.852212 23.142578 19.768228 23.142578 18.355469 C 23.142578 17.42448 22.875653 16.63672 22.341797 15.992188 C 21.814455 15.347657 21.075521 14.914714 20.125 14.693359 C 20.964844 14.485027 21.619141 14.091146 22.087891 13.511719 C 22.563151 12.932289 22.800781 12.225911 22.800781 11.392578 C 22.800781 10.227214 22.387369 9.3059885 21.560547 8.6289062 C 20.733722 7.9518215 19.5944 7.6132812 18.142578 7.6132812 z M 66.689453 7.6132812 C 65.244162 7.6132812 64.10482 7.9518215 63.271484 8.6289062 C 62.44465 9.3059885 62.03125 10.227214 62.03125 11.392578 C 62.03125 12.225911 62.265613 12.932289 62.734375 13.511719 C 63.209613 14.091151 63.870435 14.485032 64.716797 14.693359 C 63.766271 14.914714 63.02408 15.347657 62.490234 15.992188 C 61.956389 16.63672 61.689453 17.42448 61.689453 18.355469 C 61.689453 19.768228 62.119152 20.852212 62.978516 21.607422 C 63.844405 22.362629 65.08139 22.740234 66.689453 22.740234 C 68.297541 22.740234 69.531261 22.362629 70.390625 21.607422 C 71.256515 20.852212 71.689453 19.768228 71.689453 18.355469 C 71.689453 17.42448 71.422518 16.63672 70.888672 15.992188 C 70.361327 15.347657 69.622401 14.914714 68.671875 14.693359 C 69.511711 14.485027 70.166003 14.091146 70.634766 13.511719 C 71.110029 12.932289 71.347656 12.225911 71.347656 11.392578 C 71.347656 10.227214 70.934257 9.3059885 70.107422 8.6289062 C 69.280612 7.9518215 68.141296 7.6132812 66.689453 7.6132812 z M 18.142578 9.1757812 C 18.988933 9.1757812 19.64974 9.3873708 20.125 9.8105469 C 20.606771 10.233725 20.847656 10.822917 20.847656 11.578125 C 20.847656 12.333333 20.606771 12.922525 20.125 13.345703 C 19.64974 13.768879 18.988933 13.980469 18.142578 13.980469 C 17.289715 13.980469 16.625651 13.768879 16.150391 13.345703 C 15.681638 12.922525 15.447266 12.333333 15.447266 11.578125 C 15.447266 10.822917 15.681638 10.233725 16.150391 9.8105469 C 16.625651 9.3873708 17.289715 9.1757812 18.142578 9.1757812 z M 66.689453 9.1757812 C 67.535815 9.1757812 68.196612 9.3873708 68.671875 9.8105469 C 69.153639 10.233725 69.394531 10.822917 69.394531 11.578125 C 69.394531 12.333333 69.153639 12.922525 68.671875 13.345703 C 68.196612 13.768879 67.535815 13.980469 66.689453 13.980469 C 65.83659 13.980469 65.172529 13.768879 64.697266 13.345703 C 64.228529 12.922525 63.994141 12.333333 63.994141 11.578125 C 63.994141 10.822917 64.228529 10.233725 64.697266 9.8105469 C 65.172529 9.3873708 65.83659 9.1757812 66.689453 9.1757812 z M 31.880859 11.253906 C 30.539714 11.253906 29.504557 11.533856 28.775391 12.09375 C 28.046224 12.653647 27.681641 13.447916 27.681641 14.476562 C 27.681641 15.322917 27.929038 15.990236 28.423828 16.478516 C 28.918621 16.960282 29.722658 17.318353 30.835938 17.552734 L 31.460938 17.701172 C 32.574217 17.942056 33.29362 18.192708 33.619141 18.453125 C 33.951172 18.713542 34.117188 19.08789 34.117188 19.576172 C 34.117188 20.103514 33.889322 20.513672 33.433594 20.806641 C 32.977863 21.093099 32.326821 21.236328 31.480469 21.236328 C 30.848958 21.236328 30.210937 21.151694 29.566406 20.982422 C 28.921873 20.806641 28.267579 20.546225 27.603516 20.201172 L 27.603516 22.054688 C 28.306641 22.28254 28.973958 22.45181 29.605469 22.5625 C 30.243488 22.679691 30.855469 22.738281 31.441406 22.738281 C 32.847658 22.738281 33.951172 22.442058 34.751953 21.849609 C 35.559245 21.257161 35.962891 20.453125 35.962891 19.4375 C 35.962891 18.545574 35.69271 17.852215 35.152344 17.357422 C 34.618491 16.85612 33.713542 16.468751 32.4375 16.195312 L 31.822266 16.058594 C 30.858725 15.843755 30.21745 15.619147 29.898438 15.384766 C 29.579428 15.143881 29.419922 14.815105 29.419922 14.398438 C 29.419922 13.851563 29.641276 13.441405 30.083984 13.167969 C 30.533204 12.89453 31.203777 12.757812 32.095703 12.757812 C 32.681641 12.757812 33.248047 12.824861 33.794922 12.955078 C 34.341797 13.085285 34.869141 13.280599 35.376953 13.541016 L 35.376953 11.841797 C 34.882163 11.646494 34.341797 11.500007 33.755859 11.402344 C 33.169922 11.304681 32.544922 11.253906 31.880859 11.253906 z M 53.917969 11.255859 C 52.212243 11.255859 50.867846 11.766927 49.884766 12.789062 C 48.908211 13.811198 48.419922 15.214193 48.419922 16.998047 C 48.419922 18.75586 48.904946 20.152345 49.875 21.1875 C 50.845054 22.222657 52.153638 22.740234 53.800781 22.740234 C 54.406236 22.740234 54.97592 22.681644 55.509766 22.564453 C 56.050137 22.447273 56.570949 22.27149 57.072266 22.037109 L 57.072266 20.376953 C 56.564448 20.656888 56.053381 20.868475 55.539062 21.011719 C 55.031245 21.148437 54.516938 21.216797 53.996094 21.216797 C 52.830739 21.216797 51.925785 20.848959 51.28125 20.113281 C 50.636715 19.371093 50.314453 18.332681 50.314453 16.998047 C 50.314453 15.66341 50.636715 14.628253 51.28125 13.892578 C 51.925785 13.15039 52.830739 12.779297 53.996094 12.779297 C 54.516938 12.779297 55.031245 12.850922 55.539062 12.994141 C 56.053381 13.130859 56.564448 13.339191 57.072266 13.619141 L 57.072266 11.939453 C 56.577475 11.711603 56.066407 11.54233 55.539062 11.431641 C 55.011718 11.31445 54.471367 11.255859 53.917969 11.255859 z M 18.142578 15.533203 C 19.086588 15.533203 19.825519 15.783855 20.359375 16.285156 C 20.899739 16.786458 21.169922 17.476562 21.169922 18.355469 C 21.169922 19.227864 20.899739 19.917969 20.359375 20.425781 C 19.819008 20.927083 19.080077 21.177734 18.142578 21.177734 C 17.205079 21.177734 16.466145 20.927083 15.925781 20.425781 C 15.391926 19.92448 15.125 19.234375 15.125 18.355469 C 15.125 17.476562 15.391926 16.786458 15.925781 16.285156 C 16.466145 15.783855 17.205079 15.533203 18.142578 15.533203 z M 66.689453 15.533203 C 67.633478 15.533203 68.372404 15.783855 68.90625 16.285156 C 69.446622 16.786458 69.716797 17.476562 69.716797 18.355469 C 69.716797 19.227864 69.446622 19.917969 68.90625 20.425781 C 68.365878 20.927083 67.626952 21.177734 66.689453 21.177734 C 65.751954 21.177734 65.013003 20.927083 64.472656 20.425781 C 63.938785 19.92448 63.671875 19.234375 63.671875 18.355469 C 63.671875 17.476562 63.938785 16.786458 64.472656 16.285156 C 65.013003 15.783855 65.751954 15.533203 66.689453 15.533203 z "
       transform="matrix(0.26458333,0,0,0.26458333,87.415115,39.673144)"
       id="path819" />
  </g>
</svg>
