<?xml version="1.0" encoding="UTF-8" standalone="no"?>
<!-- Created with Inkscape (http://www.inkscape.org/) -->

<svg
   xmlns:dc="http://purl.org/dc/elements/1.1/"
   xmlns:cc="http://creativecommons.org/ns#"
   xmlns:rdf="http://www.w3.org/1999/02/22-rdf-syntax-ns#"
   xmlns:svg="http://www.w3.org/2000/svg"
   xmlns="http://www.w3.org/2000/svg"
   xmlns:sodipodi="http://sodipodi.sourceforge.net/DTD/sodipodi-0.dtd"
   xmlns:inkscape="http://www.inkscape.org/namespaces/inkscape"
   width="429.45898"
   height="419.99991"
   id="svg2"
   version="1.1"
   inkscape:version="0.92.3 (2405546, 2018-03-11)"
   sodipodi:docname="logo.svg"
   inkscape:export-filename="/home/thockin/src/kubernetes/new.png"
   inkscape:export-xdpi="460.95001"
   inkscape:export-ydpi="460.95001">
  <defs
     id="defs4" />
  <sodipodi:namedview
     id="base"
     pagecolor="#ffffff"
     bordercolor="#666666"
     borderopacity="1.0"
     inkscape:pageopacity="0.0"
     inkscape:pageshadow="2"
     inkscape:zoom="1"
     inkscape:cx="275.15383"
     inkscape:cy="167.54494"
     inkscape:document-units="px"
     inkscape:current-layer="g3052"
     showgrid="false"
     inkscape:window-width="1920"
     inkscape:window-height="1016"
     inkscape:window-x="0"
     inkscape:window-y="27"
     inkscape:window-maximized="1"
     inkscape:snap-global="false"
     fit-margin-top="10"
     fit-margin-left="10"
     fit-margin-right="10"
     fit-margin-bottom="10" />
  <metadata
     id="metadata7">
    <rdf:RDF>
      <cc:Work
         rdf:about="">
        <dc:format>image/svg+xml</dc:format>
        <dc:type
           rdf:resource="http://purl.org/dc/dcmitype/StillImage" />
        <dc:title></dc:title>
      </cc:Work>
    </rdf:RDF>
  </metadata>
  <g
     inkscape:label="Layer 1"
     inkscape:groupmode="layer"
     id="layer1"
     transform="translate(3.6739058,-466.71887)">
    <g
       id="g3052">
      <path
         style="color:#000000;font-style:normal;font-variant:normal;font-weight:normal;font-stretch:normal;font-size:medium;line-height:normal;font-family:Sans;-inkscape-font-specification:Sans;text-indent:0;text-align:start;text-decoration:none;text-decoration-line:none;letter-spacing:normal;word-spacing:normal;text-transform:none;writing-mode:lr-tb;direction:ltr;baseline-shift:baseline;text-anchor:start;display:inline;overflow:visible;visibility:visible;fill:#326ce5;fill-opacity:1;stroke:#ffffff;stroke-width:0.1985696;stroke-miterlimit:4;stroke-dasharray:none;stroke-opacity:1;marker:none;enable-background:accumulate"
         d="m 211.04342,476.81815 c -6.41536,6.5e-4 -11.61709,5.7791 -11.61632,12.90702 0,0.1094 0.0224,0.21393 0.0248,0.32268 -0.009,0.96851 -0.0563,2.1353 -0.0248,2.97854 0.15299,4.11119 1.04916,7.25771 1.58855,11.04543 0.97719,8.10693 1.796,14.82709 1.2907,21.0732 -0.49141,2.35536 -2.22626,4.50945 -3.77282,6.00673 l -0.27303,4.9146 c -6.97124,0.57758 -13.98911,1.63521 -20.99874,3.22676 -30.16241,6.84841 -56.13171,22.3852 -75.90323,43.36263 -1.28293,-0.87524 -3.527367,-2.4854 -4.194777,-2.97854 -2.07399,0.28008 -4.17013,0.92 -6.90029,-0.67017 -5.19848,-3.4993 -9.93314,-8.32954 -15.66218,-14.14809 -2.62507,-2.7833 -4.52605,-5.43366 -7.64493,-8.11653 -0.70827,-0.60927 -1.78917,-1.43331 -2.5814,-2.06016 -2.43834,-1.94405 -5.31428,-2.95791 -8.09171,-3.05301 -3.57099,-0.12227 -7.00867,1.27391 -9.25831,4.0955 -3.99936,5.01617 -2.71891,12.68308 2.85444,17.12663 0.0565,0.045 0.11677,0.08 0.17374,0.12411 0.76586,0.62082 1.7037,1.4163 2.40766,1.93605 3.30966,2.44364 6.33294,3.69455 9.63063,5.63441 6.94755,4.29054 12.70716,7.84816 17.27555,12.13757 1.78397,1.90164 2.09577,5.2525 2.33319,6.70172 l 3.72318,3.32604 c -19.93116,29.99488 -29.1555,67.04461 -23.70424,104.79511 l -4.86496,1.41481 c -1.2822,1.65576 -3.094,4.26109 -4.98906,5.0387 -5.97705,1.88261 -12.70388,2.57393 -20.82498,3.42533 -3.81279,0.31703 -7.10258,0.12784 -11.14472,0.89356 -0.88966,0.16853 -2.12924,0.49148 -3.10265,0.71981 -0.0338,0.007 -0.0654,0.0172 -0.0993,0.0248 -0.0531,0.0123 -0.12276,0.038 -0.17375,0.0496 -6.8467897,1.65431 -11.2451797,7.94755 -9.8291897,14.14808 1.41632,6.20199 8.1041297,9.97357 14.9919997,8.48885 0.0497,-0.0114 0.12192,-0.0133 0.17375,-0.0248 0.0778,-0.0178 0.14622,-0.0556 0.22339,-0.0745 0.96017,-0.21077 2.16343,-0.44527 3.00337,-0.67017 3.97404,-1.06404 6.85219,-2.62745 10.4249,-3.99622 7.68619,-2.75676 14.05216,-5.05973 20.2541,-5.95709 2.59029,-0.20287 5.31937,1.59822 6.6769,2.35802 l 5.06353,-0.86874 c 11.65221,36.12602 36.071477,65.32544 66.992417,83.64744 l -2.10981,5.06352 c 0.76046,1.96618 1.59811,4.6266 1.03164,6.56831 -2.25471,5.84685 -6.11561,12.01804 -10.51333,18.89825 -2.12935,3.17863 -4.30859,5.64542 -6.23013,9.28312 -0.4598,0.87045 -1.04541,2.20756 -1.48927,3.12748 -2.98556,6.38787 -0.79558,13.74514 4.93942,16.50609 5.77103,2.77829 12.9344,-0.15197 16.0345,-6.55279 0.005,-0.009 0.0204,-0.0158 0.0248,-0.0248 0.003,-0.007 -0.003,-0.0179 0,-0.0248 0.44156,-0.9075 1.06713,-2.10036 1.43963,-2.95372 1.64585,-3.77045 2.19348,-7.00161 3.35086,-10.64829 3.07356,-7.7205 4.76198,-15.82073 8.99303,-20.86843 1.1586,-1.38223 3.04775,-1.91435 5.00613,-2.43868 l 2.63104,-4.76567 c 26.95641,10.34691 57.1298,13.12343 87.27134,6.27976 6.87605,-1.56121 13.5142,-3.58176 19.93143,-6.00673 0.73945,1.31162 2.11367,3.83295 2.48212,4.46782 1.99013,0.64748 4.16236,0.98184 5.93226,3.59907 3.16551,5.40823 5.33033,11.80628 7.96761,19.53429 1.15756,3.64662 1.72963,6.87792 3.37568,10.64829 0.37517,0.85937 0.99761,2.06899 1.43963,2.97855 3.09357,6.42161 10.27965,9.36189 16.05932,6.57761 5.73429,-2.76242 7.92669,-10.11902 4.93942,-16.50609 -0.44392,-0.91989 -1.05425,-2.25706 -1.5141,-3.12748 -1.92172,-3.6376 -4.10062,-6.07978 -6.23012,-9.2583 -4.39809,-6.87998 -8.04578,-12.59543 -10.3008,-18.44215 -0.94289,-3.01554 0.15908,-4.89096 0.89357,-6.85066 -0.43986,-0.50418 -1.3811,-3.35192 -1.93606,-4.6912 32.13444,-18.97385 55.83663,-49.26217 66.9676,-84.24315 1.50309,0.23623 4.11559,0.69845 4.96424,0.86874 1.74705,-1.15226 3.3534,-2.65569 6.50315,-2.40766 6.20198,0.89704 12.56778,3.20073 20.2541,5.95709 3.57279,1.36859 6.45081,2.9572 10.42491,4.02103 0.83994,0.22486 2.04318,0.43463 3.00336,0.64535 0.0772,0.0189 0.14559,0.0568 0.22339,0.0745 0.0519,0.0116 0.12403,0.0135 0.17375,0.0248 6.88827,1.48288 13.57727,-2.2865 14.99201,-8.48885 1.4144,-6.2009 -2.98196,-12.4956 -9.8292,-14.14808 -0.99597,-0.22648 -2.40845,-0.61111 -3.37568,-0.79428 -4.04218,-0.76551 -7.33192,-0.57673 -11.14472,-0.89357 -8.12115,-0.85097 -14.84784,-1.54303 -20.82499,-3.42532 -2.43705,-0.94542 -4.17074,-3.84529 -5.01388,-5.03871 l -4.69121,-1.36516 c 2.43229,-17.59678 1.77645,-35.91039 -2.43247,-54.23432 -4.24811,-18.49455 -11.75562,-35.4096 -21.7682,-50.31258 1.20338,-1.09395 3.47592,-3.10635 4.12032,-3.69835 0.18837,-2.08433 0.0265,-4.26967 2.18427,-6.57762 4.56816,-4.28965 10.32823,-7.84666 17.27555,-12.13757 3.29759,-1.94004 6.34592,-3.1906 9.65545,-5.63441 0.74841,-0.55263 1.77037,-1.42779 2.55658,-2.06016 5.57217,-4.44505 6.85509,-12.11149 2.85444,-17.12663 -4.00064,-5.01514 -11.75303,-5.48753 -17.3252,-1.04249 -0.79313,0.62816 -1.86935,1.44759 -2.5814,2.06016 -3.11873,2.68304 -5.04482,5.3331 -7.66975,8.11653 -5.72873,5.81885 -10.46388,10.67333 -15.66218,14.17291 -2.25258,1.3114 -5.55193,0.85764 -7.04922,0.76945 l -4.41817,3.1523 c -25.19353,-26.41812 -59.49528,-43.30833 -96.43033,-46.58936 -0.10331,-1.54783 -0.23865,-4.34564 -0.27304,-5.18764 -1.51207,-1.44689 -3.33868,-2.68216 -3.79764,-5.80816 -0.5053,-6.24611 0.33834,-12.96627 1.31552,-21.0732 0.5394,-3.78772 1.43557,-6.93424 1.58856,-11.04543 0.0348,-0.93457 -0.0211,-2.29071 -0.0248,-3.30122 -7.6e-4,-7.12792 -5.20097,-12.90767 -11.61632,-12.90702 z m -14.54523,90.10095 -3.45014,60.93605 -0.24822,0.1241 c -0.2314,5.45142 -4.71798,9.80438 -10.22633,9.80438 -2.25639,0 -4.33909,-0.72461 -6.03155,-1.96088 l -0.0993,0.0497 -49.96507,-35.41986 c 15.3563,-15.10014 34.99822,-26.25915 57.63482,-31.39881 4.13501,-0.93886 8.26817,-1.6355 12.38578,-2.13463 z m 29.11527,0 c 26.4284,3.25044 50.86957,15.21744 69.59865,33.55827 l -49.6424,35.19646 -0.17375,-0.0745 c -4.40622,3.21817 -10.61429,2.41968 -14.0488,-1.88641 -1.40692,-1.76406 -2.14513,-3.83826 -2.23391,-5.93226 l -0.0496,-0.0248 z m -117.25535,56.29448 45.62137,40.80606 -0.0496,0.24821 c 4.11783,3.57979 4.72506,9.79182 1.2907,14.09844 -1.40683,1.76413 -3.28997,2.94736 -5.31174,3.49979 l -0.0496,0.19857 -58.478747,16.87842 c -2.97638,-27.21609 3.43808,-53.67229 16.977697,-75.72949 z m 205.04794,0.0248 c 6.77845,10.9869 11.91143,23.25817 14.96718,36.56162 3.0191,13.14394 3.77678,26.26438 2.53176,38.94447 l -58.7766,-16.92806 -0.0496,-0.24821 c -5.26329,-1.43847 -8.49793,-6.79237 -7.27261,-12.16239 0.502,-2.19985 1.66974,-4.06086 3.25157,-5.43585 l -0.0248,-0.1241 z M 201.68582,667.1719 h 18.69037 l 11.61632,14.5204 -4.16996,18.11948 -16.77913,8.06689 -16.82878,-8.09171 -4.16996,-18.11948 z m 59.91838,49.69204 c 0.79426,-0.0401 1.58505,0.0314 2.35801,0.17375 l 0.0993,-0.12411 60.48926,10.22634 c -8.85263,24.87132 -25.79245,46.41777 -48.42616,60.83676 l -23.48085,-56.71644 0.0745,-0.0993 c -2.15695,-5.01189 0.002,-10.8892 4.96424,-13.27934 1.27057,-0.61192 2.598,-0.95076 3.92175,-1.01767 z m -101.59317,0.24821 c 4.61614,0.0647 8.75662,3.26866 9.8292,7.96761 0.50213,2.19982 0.25774,4.37945 -0.57089,6.30458 l 0.17375,0.22339 -23.23265,56.14556 c -21.72126,-13.93848 -39.02231,-34.80852 -48.277227,-60.4148 l 59.968017,-10.17669 0.0993,0.1241 c 0.67078,-0.12344 1.35107,-0.183 2.01052,-0.17375 z m 50.66007,24.59781 c 1.60798,-0.0591 3.23958,0.27084 4.79049,1.01767 2.03296,0.97897 3.60343,2.5204 4.59192,4.36853 h 0.22339 l 29.56205,53.41522 c -3.83659,1.28612 -7.78082,2.38529 -11.81489,3.30122 -22.60876,5.13335 -45.14569,3.57797 -65.55279,-3.37568 l 29.48759,-53.31594 h 0.0496 c 1.76939,-3.3077 5.12506,-5.28105 8.6626,-5.41102 z"
         id="path3059"
         inkscape:connector-curvature="0" />
    </g>
  </g>
</svg>
