<?xml version="1.0" encoding="UTF-8" standalone="no"?>
<!-- Created with Inkscape (http://www.inkscape.org/) -->

<svg
   xmlns:dc="http://purl.org/dc/elements/1.1/"
   xmlns:cc="http://creativecommons.org/ns#"
   xmlns:rdf="http://www.w3.org/1999/02/22-rdf-syntax-ns#"
   xmlns:svg="http://www.w3.org/2000/svg"
   xmlns="http://www.w3.org/2000/svg"
   xmlns:sodipodi="http://sodipodi.sourceforge.net/DTD/sodipodi-0.dtd"
   xmlns:inkscape="http://www.inkscape.org/namespaces/inkscape"
   width="429.61017"
   height="420.00098"
   id="svg2"
   version="1.1"
   inkscape:version="0.92.3 (2405546, 2018-03-11)"
   sodipodi:docname="logo.svg"
   inkscape:export-filename="/home/thockin/src/kubernetes/new.png"
   inkscape:export-xdpi="460.95001"
   inkscape:export-ydpi="460.95001">
  <defs
     id="defs4" />
  <sodipodi:namedview
     id="base"
     pagecolor="#ffffff"
     bordercolor="#666666"
     borderopacity="1.0"
     inkscape:pageopacity="0.0"
     inkscape:pageshadow="2"
     inkscape:zoom="1"
     inkscape:cx="277.0303"
     inkscape:cy="327.54494"
     inkscape:document-units="px"
     inkscape:current-layer="g3052"
     showgrid="false"
     inkscape:window-width="1920"
     inkscape:window-height="1016"
     inkscape:window-x="0"
     inkscape:window-y="27"
     inkscape:window-maximized="1"
     inkscape:snap-global="false"
     fit-margin-top="10"
     fit-margin-left="10"
     fit-margin-right="10"
     fit-margin-bottom="10" />
  <metadata
     id="metadata7">
    <rdf:RDF>
      <cc:Work
         rdf:about="">
        <dc:format>image/svg+xml</dc:format>
        <dc:type
           rdf:resource="http://purl.org/dc/dcmitype/StillImage" />
        <dc:title></dc:title>
      </cc:Work>
    </rdf:RDF>
  </metadata>
  <g
     inkscape:label="Layer 1"
     inkscape:groupmode="layer"
     id="layer1"
     transform="translate(3.6739058,-466.71779)">
    <g
       id="g3052">
      <path
         id="path3059"
         style="color:#000000;font-style:normal;font-variant:normal;font-weight:normal;font-stretch:normal;font-size:medium;line-height:normal;font-family:Sans;-inkscape-font-specification:Sans;font-variant-ligatures:normal;font-variant-position:normal;font-variant-caps:normal;font-variant-numeric:normal;font-variant-alternates:normal;font-feature-settings:normal;text-indent:0;text-align:start;text-decoration:none;text-decoration-line:none;text-decoration-style:solid;text-decoration-color:#000000;letter-spacing:normal;word-spacing:normal;text-transform:none;writing-mode:lr-tb;direction:ltr;text-orientation:mixed;dominant-baseline:auto;baseline-shift:baseline;text-anchor:start;white-space:normal;shape-padding:0;clip-rule:nonzero;display:inline;overflow:visible;visibility:visible;opacity:1;isolation:auto;mix-blend-mode:normal;color-interpolation:sRGB;color-interpolation-filters:linearRGB;solid-color:#000000;solid-opacity:1;vector-effect:none;fill:#326ce5;fill-opacity:1;fill-rule:nonzero;stroke:none;stroke-width:6.45999908;stroke-linecap:butt;stroke-linejoin:miter;stroke-miterlimit:4;stroke-dasharray:none;stroke-dashoffset:0;stroke-opacity:1;marker:none;color-rendering:auto;image-rendering:auto;shape-rendering:auto;text-rendering:auto;enable-background:accumulate"
         d="m 138.19172,871.6121 c -6.2e-4,-0.003 0.0874,0.14952 0.10094,0.46684 -0.0141,-0.31176 -0.10031,-0.46335 -0.10094,-0.46684 z m -5.17619,-1.95566 c 0.002,-0.002 -0.35149,0.25256 -0.7665,0.91317 0.43206,-0.76135 0.7639,-0.91115 0.7665,-0.91317 z m 77.60673,-130.09423 c -4.03856,0.14838 -7.80718,2.18872 -10.30666,5.49952 h -0.33751 l -32.76684,59.24715 3.6511,1.24437 c 21.29483,7.25614 44.82647,8.87595 68.40092,3.52335 4.20201,-0.95407 8.31668,-2.09962 12.32384,-3.44291 l 3.6779,-1.23333 -32.85515,-59.36386 h -0.57723 c -1.27666,-1.67342 -2.82402,-3.16004 -4.81977,-4.12109 -2.03954,-0.98214 -4.23479,-1.43242 -6.3906,-1.3532 z m -52.19572,-25.23121 -66.651862,11.3113 1.31376,3.63534 c 9.655672,26.71507 27.714012,48.50083 50.374122,63.04176 l 3.25208,2.08657 25.81476,-62.38568 -0.38798,-0.49838 c 0.52198,-2.03834 0.7352,-4.17993 0.23815,-6.35748 -1.42087,-6.22484 -6.93661,-10.52467 -13.09664,-10.61105 -0.21292,-0.003 -0.42289,0.0479 -0.63559,0.0552 z m 105.2573,-0.25077 -0.24289,0.30281 c -0.36781,-0.0148 -0.70053,-0.0965 -1.08192,-0.0773 -1.78614,0.0903 -3.56255,0.54857 -5.22668,1.35003 -5.96603,2.8734 -8.85379,9.59651 -7.21544,15.78884 l -0.194,0.25707 26.04976,62.91875 3.24577,-2.06922 c 23.62431,-15.05005 41.30084,-37.53321 50.53972,-63.48967 l 1.29168,-3.62745 z m -63.6269,-50.29841 -0.96995,1.20809 -12.8159,15.95759 4.93963,21.46026 19.90834,9.57171 19.85787,-9.54648 4.93805,-21.4571 -13.75588,-17.19407 z m 115.851,-46.41548 -2.87672,2.57391 -47.5037,42.51361 0.0931,0.46052 c -1.36502,1.6152 -2.49397,3.46069 -2.99343,5.64935 -1.46301,6.41173 1.92554,12.8321 7.72172,15.44501 l 0.0899,0.45106 65.37279,18.828 0.37852,-3.86243 c 1.29938,-13.23364 0.5078,-26.9256 -2.64015,-40.6305 -3.18627,-13.8717 -8.54235,-26.67901 -15.61534,-38.14333 z m -209.91212,-0.03 -2.02348,3.29624 c -14.129482,23.01812 -20.824302,50.63837 -17.719262,79.0309 l 0.41795,3.8167 64.928032,-18.73967 0.13406,-0.53308 c 1.93442,-0.86525 3.75618,-2.042 5.15886,-3.80093 4.12456,-5.17212 3.80925,-12.4696 -0.3454,-17.33285 l 0.0883,-0.44318 z m 93.77882,-55.91777 -3.8309,0.46525 c -4.28625,0.51957 -8.59781,1.24594 -12.91842,2.22694 -23.60441,5.3594 -44.11807,17.00926 -60.14454,32.76841 l -2.75213,2.70638 55.52508,39.36089 0.41321,-0.20661 c 1.86395,0.94897 3.89171,1.62446 6.10829,1.62446 6.60886,0 12.11711,-4.78594 13.33952,-11.05738 l 0.42899,-0.21449 z m 22.71251,-0.006 0.21922,3.86086 3.61324,63.71837 0.36117,0.18137 c 0.41826,2.06953 1.164,4.09295 2.55498,5.83702 4.13395,5.18303 11.34323,6.49991 17.01901,3.50915 l 0.35643,0.15299 55.10083,-39.06754 -2.76316,-2.70481 C 279.4062,577.76201 253.90811,565.27607 226.32592,561.88372 Z m -11.36809,-84.69286 c 4.58198,-4.7e-4 8.57908,4.21609 8.57968,9.89187 v 0.006 0.006 c 0.004,1.13573 0.0531,2.51812 0.0268,3.22369 -0.14039,3.77241 -1.00146,6.79541 -1.58503,10.89337 l -0.005,0.0347 -0.003,0.0347 c -0.9924,8.23315 -1.90205,15.24692 -1.35003,22.07062 l 0.008,0.10567 0.0158,0.10251 c 0.51789,3.52736 2.47222,5.4826 3.89556,6.81328 0.0584,1.24724 0.13181,2.84912 0.21607,4.11163 l 0.18295,2.75843 2.7537,0.24446 c 36.75227,3.2648 70.90675,20.0802 95.98366,46.37604 l 1.93358,2.02822 5.83072,-4.1621 c 1.68316,0.19709 4.70141,0.54629 7.85577,-1.29011 l 0.0915,-0.0536 0.0883,-0.0584 c 5.67893,-3.82315 10.60143,-8.91225 16.41969,-14.82204 l 0.0252,-0.0252 0.0237,-0.0252 c 2.82962,-3.00047 4.6826,-5.54749 7.55454,-8.01822 0.58367,-0.50213 1.67404,-1.33973 2.52344,-2.01244 l 0.003,-0.003 0.005,-0.003 c 4.436,-3.53869 10.21417,-3.03687 13.07456,0.54885 2.85662,3.58101 2.04755,9.33199 -2.39096,12.87269 l -0.005,0.005 -0.006,0.003 c -0.8682,0.69833 -1.91316,1.58395 -2.49347,2.01245 -3.02576,2.23428 -5.95442,3.43781 -9.53386,5.54368 l -0.03,0.0174 -0.03,0.0189 c -7.06286,4.36226 -13.09491,8.05372 -18.07728,12.73232 l -0.0773,0.0725 -0.071,0.0757 c -2.4305,2.59971 -2.74934,5.34123 -2.90668,7.28643 -0.93286,0.83681 -2.31428,2.06633 -3.31674,2.97765 l -2.06291,1.87523 1.55506,2.31525 c 9.96513,14.83234 17.43456,31.65934 21.66372,50.0713 4.19024,18.24266 4.84129,36.46259 2.42091,53.97317 l -0.38166,2.76316 6.34644,1.84684 c 0.88374,1.42262 2.50804,4.0241 5.93323,5.35285 l 0.0978,0.0379 0.10094,0.0316 c 6.52252,2.05404 13.55266,2.75004 21.80565,3.61483 l 0.0331,0.003 0.0347,0.003 c 4.1346,0.34358 7.29819,0.16213 10.99746,0.8627 0.7269,0.13767 2.14289,0.51541 3.27574,0.77438 5.4493,1.31512 8.61011,6.09868 7.60027,10.52589 -1.01048,4.43006 -5.93082,7.37033 -11.41224,6.1903 l 0.0394,0.008 c -0.61572,-0.14065 -0.62996,-0.12748 -0.18453,-0.0268 0.43929,0.0992 0.42619,0.0846 -0.17033,-0.0615 l -0.0379,-0.009 -0.0379,-0.008 c -1.08962,-0.23912 -2.3155,-0.46229 -2.90984,-0.62139 -3.64063,-0.97457 -6.40741,-2.5011 -10.27828,-3.98388 l -0.0331,-0.0126 -0.0331,-0.0126 c -7.80939,-2.8005 -14.44825,-5.2331 -21.21895,-6.21239 l -0.10409,-0.0142 -0.10409,-0.009 c -3.55059,-0.27959 -5.88902,1.18817 -7.5025,2.27899 -1.2254,-0.22516 -2.70165,-0.49486 -3.90817,-0.68449 l -2.73951,-0.43056 -0.84062,2.64172 c -11.07787,34.81412 -34.67333,64.96471 -66.64555,83.84278 l -2.41619,1.42732 1.07404,2.59125 c 0.21938,0.52945 0.60985,1.61259 0.9936,2.61807 0.15437,0.40447 0.31271,0.79002 0.47315,1.16866 -0.69557,1.81505 -1.54472,4.35329 -0.50627,7.67441 l 0.0316,0.10093 0.0379,0.0978 c 2.45907,6.37579 6.29203,12.33077 10.76404,19.32638 l 0.0189,0.03 0.0205,0.0284 c 2.30618,3.44225 4.39874,5.78931 6.16033,9.1238 0.37636,0.71238 0.992,2.04745 1.46991,3.03916 2.37682,5.08187 0.60161,10.52706 -3.49812,12.50206 -4.13176,1.99042 -9.55116,-0.0655 -12.01471,-5.17936 l -0.002,-0.005 -0.003,-0.005 c -0.47834,-0.98432 -1.10644,-2.2166 -1.40839,-2.90826 -1.51249,-3.46445 -2.06312,-6.57241 -3.31359,-10.51169 l -0.0111,-0.0331 -0.0111,-0.0316 c -2.67968,-7.85225 -4.91502,-14.54666 -8.36993,-20.44931 l -0.052,-0.0899 -0.0599,-0.0867 c -1.99536,-2.95065 -4.5993,-3.87409 -6.46314,-4.46175 -0.54457,-0.98102 -1.34342,-2.43665 -1.95251,-3.51704 l -1.36109,-2.41462 -2.5944,0.97941 c -6.39003,2.4147 -12.99438,4.42562 -19.83579,5.97897 -30.00545,6.81276 -60.01919,4.04922 -86.85198,-6.25023 l -2.62596,-1.0078 -3.41137,6.17926 c -1.77946,0.49908 -3.74719,1.16783 -5.36072,3.09279 -5.12256,6.11128 -6.68001,14.59205 -9.66792,22.09743 l -0.0426,0.10724 -0.0347,0.10882 c -1.25419,3.95173 -1.78069,7.0578 -3.28835,10.51169 -0.28977,0.66383 -0.92157,1.88093 -1.4084,2.88145 l -0.002,0.003 -0.002,0.003 -0.0111,0.0252 -0.0126,0.0237 c -2.4694,5.09863 -7.86815,7.14679 -11.9942,5.16043 -4.09726,-1.97251 -5.86862,-7.4145 -3.49812,-12.49574 0.49757,-1.03327 1.09119,-2.37333 1.44624,-3.04548 1.76412,-3.33968 3.86005,-5.71285 6.16192,-9.14904 l 0.0189,-0.0284 0.0189,-0.03 c 4.48093,-7.01039 8.51701,-13.40283 10.9801,-19.79006 l 0.0489,-0.12775 0.0379,-0.12932 c 0.86255,-2.95658 0.0622,-5.41292 -0.70656,-7.4473 l 2.76316,-6.63191 -2.41461,-1.43047 C 104.15947,797.42401 79.859248,768.36761 68.261688,732.41104 l -0.85954,-2.66538 -6.77701,1.16236 c -1.46865,-0.92446 -4.01738,-2.52215 -7.62551,-2.23955 l -0.10567,0.008 -0.10409,0.0158 c -6.77029,0.97959 -13.40943,3.41139 -21.21896,6.21239 l -0.0331,0.0126 -0.0331,0.0126 c -3.8583,1.47819 -6.62527,2.98055 -10.27827,3.95864 -0.6513,0.17439 -1.87177,0.41876 -2.90984,0.64663 l -0.0379,0.008 -0.0379,0.009 c -0.58799,0.14404 -0.59232,0.15659 -0.17191,0.0615 0.39476,-0.0897 0.41051,-0.10875 -0.18294,0.0268 l 0.0379,-0.008 c -5.48007,1.18126 -10.3988204,-1.7611 -11.4106704,-6.19188 -1.01073,-4.42596 2.15189,-9.20749 7.6018604,-10.52432 l -0.0426,0.009 c 0.4387,-0.0998 0.49554,-0.12432 0.19083,-0.0536 0.0496,-0.0115 0.14638,-0.034 0.0379,-0.0111 l 0.0363,-0.008 0.0347,-0.008 c 1.05528,-0.24754 2.31494,-0.57039 3.01708,-0.7034 3.69894,-0.70071 6.86256,-0.51889 10.99746,-0.8627 l 0.0347,-0.003 0.0347,-0.003 c 8.25267,-0.86519 15.2813,-1.56034 21.80407,-3.61483 l 0.13091,-0.041 0.12459,-0.0505 c 3.12368,-1.28175 4.63234,-3.65765 5.78971,-5.31183 l 6.60037,-1.92097 -0.40059,-2.77893 c -5.42562,-37.57289 3.75393,-74.43489 23.59255,-104.29051 l 1.54876,-2.33103 -5.01532,-4.47909 c -0.18297,-1.68803 -0.52323,-4.71429 -3.02498,-7.38106 l -0.071,-0.0757 -0.0741,-0.0694 c -4.98234,-4.67808 -11.01393,-8.37184 -18.07726,-12.73389 l -0.03,-0.0174 -0.03,-0.0174 c -3.57316,-2.10192 -6.47787,-3.3048 -9.51021,-5.54368 -0.55155,-0.40723 -1.50596,-1.20957 -2.33102,-1.87838 l -0.03,-0.0237 -0.0284,-0.022 c -0.27066,-0.20932 -0.30931,-0.2322 -0.13879,-0.0962 l -0.002,-0.002 c -4.43701,-3.53899 -5.24531,-9.28908 -2.38938,-12.87111 1.61097,-2.02055 4.05785,-3.04237 6.777,-2.94926 2.11522,0.0724 4.38384,0.85452 6.32279,2.40041 l 0.005,0.005 0.005,0.003 c 0.84632,0.66964 1.94189,1.51196 2.52186,2.01086 2.86541,2.46484 4.69233,5.01025 7.52931,8.01822 l 0.0237,0.0252 0.0252,0.0252 c 5.8216,5.91255 10.74611,10.9777 16.4197,14.7968 l 0.0883,0.0584 0.0899,0.0536 c 3.07222,1.78942 5.81328,1.49419 7.74695,1.21599 1.01035,0.73012 2.28385,1.65073 3.33883,2.37045 l 2.278972,1.55507 1.89101,-2.00771 c 19.67835,-20.87859 45.50496,-36.33328 75.5312,-43.15078 6.97368,-1.58337 13.95868,-2.63594 20.90037,-3.21107 l 2.80259,-0.23184 0.37378,-6.7297 c 1.58176,-1.68161 3.22323,-3.78118 3.83248,-6.70129 l 0.041,-0.19714 0.0157,-0.20188 c 0.55134,-6.81523 -0.33162,-13.83102 -1.3248,-22.07062 l -0.003,-0.0347 -0.005,-0.0347 c -0.58357,-4.09796 -1.44465,-7.12096 -1.58504,-10.89337 -0.0234,-0.62704 0.0164,-1.81331 0.0268,-2.87672 v -0.0505 -0.052 c -0.0111,-0.50907 -0.0253,-0.58722 -0.0252,-0.25708 -6.1e-4,-5.67495 3.99692,-9.8914 8.57969,-9.89187 z"
         inkscape:connector-curvature="0" />
    </g>
  </g>
</svg>
