<?xml version="1.0" encoding="UTF-8" standalone="no"?>
<!-- Created with Inkscape (http://www.inkscape.org/) -->

<svg
   xmlns:dc="http://purl.org/dc/elements/1.1/"
   xmlns:cc="http://creativecommons.org/ns#"
   xmlns:rdf="http://www.w3.org/1999/02/22-rdf-syntax-ns#"
   xmlns:svg="http://www.w3.org/2000/svg"
   xmlns="http://www.w3.org/2000/svg"
   xmlns:sodipodi="http://sodipodi.sourceforge.net/DTD/sodipodi-0.dtd"
   xmlns:inkscape="http://www.inkscape.org/namespaces/inkscape"
   width="312.95508"
   height="30"
   viewBox="0 0 82.802696 7.9374998"
   version="1.1"
   id="svg8"
   inkscape:version="0.92.3 (2405546, 2018-03-11)"
   sodipodi:docname="community.svg">
  <defs
     id="defs2" />
  <sodipodi:namedview
     id="base"
     pagecolor="#ffffff"
     bordercolor="#666666"
     borderopacity="1.0"
     inkscape:pageopacity="0.0"
     inkscape:pageshadow="2"
     inkscape:zoom="4.358453"
     inkscape:cx="229.51413"
     inkscape:cy="9.6777355"
     inkscape:document-units="mm"
     inkscape:current-layer="layer1"
     showgrid="false"
     fit-margin-top="0"
     fit-margin-left="0"
     fit-margin-right="0"
     fit-margin-bottom="0"
     units="px"
     inkscape:window-width="1920"
     inkscape:window-height="1016"
     inkscape:window-x="0"
     inkscape:window-y="27"
     inkscape:window-maximized="1" />
  <metadata
     id="metadata5">
    <rdf:RDF>
      <cc:Work
         rdf:about="">
        <dc:format>image/svg+xml</dc:format>
        <dc:type
           rdf:resource="http://purl.org/dc/dcmitype/StillImage" />
        <dc:title></dc:title>
      </cc:Work>
    </rdf:RDF>
  </metadata>
  <g
     inkscape:label="Layer 1"
     inkscape:groupmode="layer"
     id="layer1"
     transform="translate(-70.028213,-71.692963)">
    <path
       style="font-style:normal;font-weight:normal;font-size:5.29166651px;line-height:1.25;font-family:sans-serif;letter-spacing:1.05833328px;word-spacing:2.11666656px;fill:#000000;fill-opacity:1;stroke:none;stroke-width:0.99999994"
       d="M 0 7.2597656 L 0 22.457031 L 1.8066406 22.457031 L 1.8066406 17.113281 L 7.3632812 22.457031 L 9.7070312 22.457031 L 3.6621094 16.634766 L 9.4628906 11.519531 L 7.1679688 11.519531 L 1.8066406 16.234375 L 1.8066406 7.2597656 L 0 7.2597656 z M 31.671875 7.2597656 L 31.671875 22.457031 L 33.478516 22.457031 L 33.478516 20.816406 C 33.856128 21.467449 34.331381 21.95052 34.904297 22.269531 C 35.483725 22.582023 36.17383 22.740234 36.974609 22.740234 C 38.302735 22.740234 39.38021 22.212888 40.207031 21.158203 C 41.040364 20.103515 41.457031 18.716795 41.457031 16.998047 C 41.457031 15.279295 41.040364 13.892575 40.207031 12.837891 C 39.38021 11.783202 38.302735 11.253906 36.974609 11.253906 C 36.17383 11.253906 35.483725 11.415353 34.904297 11.734375 C 34.331381 12.046866 33.856121 12.526696 33.478516 13.177734 L 33.478516 7.2597656 L 31.671875 7.2597656 z M 282.20117 7.2597656 L 282.20117 9.5371094 L 283.99805 9.5371094 L 283.99805 7.2597656 L 282.20117 7.2597656 z M 109.60156 8.4121094 L 109.60156 11.519531 L 108.2832 11.519531 L 108.2832 12.914062 L 109.60156 12.914062 L 109.60156 18.853516 C 109.60156 20.220703 109.86522 21.164713 110.39258 21.685547 C 110.91992 22.199865 111.87695 22.457031 113.26367 22.457031 L 115.10938 22.457031 L 115.10938 20.951172 L 113.26367 20.951172 C 112.51499 20.951172 112.01694 20.824217 111.76953 20.570312 C 111.52866 20.316404 111.4082 19.745443 111.4082 18.853516 L 111.4082 12.914062 L 115.10938 12.914062 L 115.10938 11.519531 L 111.4082 11.519531 L 111.4082 8.4121094 L 109.60156 8.4121094 z M 291.71875 8.4121094 L 291.71875 11.519531 L 290.40039 11.519531 L 290.40039 12.914062 L 291.71875 12.914062 L 291.71875 18.853516 C 291.71875 20.220703 291.98256 21.164713 292.50977 21.685547 C 293.03712 22.199865 293.99415 22.457031 295.38086 22.457031 L 297.22656 22.457031 L 297.22656 20.951172 L 295.38086 20.951172 C 294.63221 20.951172 294.13416 20.824217 293.88672 20.570312 C 293.64596 20.316404 293.52539 19.745443 293.52539 18.853516 L 293.52539 12.914062 L 297.22656 12.914062 L 297.22656 11.519531 L 293.52539 11.519531 L 293.52539 8.4121094 L 291.71875 8.4121094 z M 53.015625 11.253906 C 51.375 11.253906 50.069659 11.783202 49.099609 12.837891 C 48.136068 13.886067 47.654297 15.305337 47.654297 17.095703 C 47.654297 18.827475 48.162107 20.20117 49.177734 21.216797 C 50.19987 22.23242 51.583333 22.740234 53.328125 22.740234 C 54.024741 22.740234 54.711588 22.668597 55.388672 22.525391 C 56.065755 22.382147 56.72656 22.173821 57.371094 21.900391 L 57.371094 20.201172 C 56.733072 20.539704 56.088543 20.793617 55.4375 20.962891 C 54.79297 21.132176 54.125655 21.216797 53.435547 21.216797 C 52.244142 21.216797 51.313153 20.894519 50.642578 20.25 C 49.978526 19.598961 49.607435 18.654951 49.529297 17.417969 L 57.791016 17.417969 L 57.791016 16.539062 C 57.791016 14.911458 57.361331 13.625649 56.501953 12.681641 C 55.649091 11.731116 54.48698 11.255859 53.015625 11.255859 L 53.015625 11.253906 z M 70.160156 11.253906 C 69.29427 11.253906 68.558594 11.418602 67.953125 11.744141 C 67.347656 12.063133 66.856117 12.554687 66.478516 13.21875 L 66.478516 11.519531 L 64.671875 11.519531 L 64.671875 22.457031 L 66.478516 22.457031 L 66.478516 16.693359 C 66.478516 15.45638 66.748715 14.511066 67.289062 13.853516 C 67.835937 13.189453 68.617189 12.855469 69.632812 12.855469 C 69.919263 12.855469 70.179683 12.884966 70.414062 12.943359 C 70.654932 12.995441 70.876298 13.080062 71.078125 13.197266 L 71.068359 11.351562 C 70.886073 11.319059 70.720038 11.296318 70.570312 11.283203 C 70.420568 11.26355 70.28386 11.253906 70.160156 11.253906 z M 81.904297 11.253906 C 81.142575 11.253906 80.468753 11.418602 79.882812 11.744141 C 79.303388 12.069671 78.798828 12.561195 78.369141 13.21875 L 78.369141 11.519531 L 76.5625 11.519531 L 76.5625 22.457031 L 78.369141 22.457031 L 78.369141 16.275391 C 78.369141 15.207682 78.649089 14.364583 79.208984 13.746094 C 79.76888 13.127604 80.533856 12.818359 81.503906 12.818359 C 82.311198 12.818359 82.916667 13.075518 83.320312 13.589844 C 83.723958 14.104166 83.925781 14.876953 83.925781 15.912109 L 83.925781 22.457031 L 85.722656 22.457031 L 85.722656 15.855469 C 85.722656 14.345049 85.400378 13.20052 84.755859 12.425781 C 84.111333 11.64453 83.160808 11.253906 81.904297 11.253906 z M 97.90625 11.253906 C 96.265625 11.253906 94.960288 11.783202 93.990234 12.837891 C 93.026693 13.886067 92.544922 15.305337 92.544922 17.095703 C 92.544922 18.827475 93.052732 20.20117 94.068359 21.216797 C 95.090495 22.23242 96.473958 22.740234 98.21875 22.740234 C 98.915366 22.740234 99.60221 22.668597 100.2793 22.525391 C 100.95638 22.382147 101.61719 22.173821 102.26172 21.900391 L 102.26172 20.201172 C 101.6237 20.539704 100.97918 20.793617 100.32812 20.962891 C 99.683598 21.132176 99.016276 21.216797 98.326172 21.216797 C 97.134767 21.216797 96.203778 20.894519 95.533203 20.25 C 94.869151 19.598961 94.49806 18.654951 94.419922 17.417969 L 102.68164 17.417969 L 102.68164 16.539062 C 102.68164 14.911458 102.25195 13.625649 101.39258 12.681641 C 100.53972 11.731116 99.377605 11.255859 97.90625 11.255859 L 97.90625 11.253906 z M 126.0625 11.253906 C 124.42188 11.253906 123.11654 11.783202 122.14648 12.837891 C 121.18293 13.886067 120.70117 15.305337 120.70117 17.095703 C 120.70117 18.827475 121.20897 20.20117 122.22461 21.216797 C 123.24674 22.23242 124.63022 22.740234 126.375 22.740234 C 127.07164 22.740234 127.75844 22.668597 128.43555 22.525391 C 129.11265 22.382147 129.77348 22.173821 130.41797 21.900391 L 130.41797 20.201172 C 129.77998 20.539704 129.1354 20.793617 128.48438 20.962891 C 127.83981 21.132176 127.17256 21.216797 126.48242 21.216797 C 125.29104 21.216797 124.36005 20.894519 123.68945 20.25 C 123.02539 19.598961 122.65429 18.654951 122.57617 17.417969 L 130.83789 17.417969 L 130.83789 16.539062 C 130.83789 14.911458 130.40822 13.625649 129.54883 12.681641 C 128.69598 11.731116 127.53383 11.255859 126.0625 11.255859 L 126.0625 11.253906 z M 141.26367 11.253906 C 139.92251 11.253906 138.88739 11.533855 138.1582 12.09375 C 137.42902 12.653645 137.06445 13.447919 137.06445 14.476562 C 137.06445 15.32292 137.31201 15.992188 137.80664 16.480469 C 138.30146 16.962234 139.10545 17.318355 140.21875 17.552734 L 140.84375 17.701172 C 141.95701 17.942041 142.67642 18.192708 143.00195 18.453125 C 143.33417 18.713534 143.5 19.087887 143.5 19.576172 C 143.5 20.103514 143.2721 20.513671 142.81641 20.806641 C 142.36067 21.093091 141.70963 21.236328 140.86328 21.236328 C 140.23176 21.236328 139.59374 21.151707 138.94922 20.982422 C 138.3047 20.806636 137.65039 20.546224 136.98633 20.201172 L 136.98633 22.056641 C 137.68947 22.284508 138.3568 22.453762 138.98828 22.564453 C 139.62634 22.681656 140.23832 22.740234 140.82422 22.740234 C 142.23051 22.740234 143.33396 22.443996 144.13477 21.851562 C 144.94203 21.259114 145.3457 20.455076 145.3457 19.439453 C 145.3457 18.547526 145.07544 17.854164 144.53516 17.359375 C 144.0013 16.85807 143.09636 16.470703 141.82031 16.197266 L 141.20508 16.060547 C 140.24156 15.845719 139.60028 15.621099 139.28125 15.386719 C 138.96226 15.145849 138.80273 14.817057 138.80273 14.400391 C 138.80273 13.853516 139.02421 13.443359 139.4668 13.169922 C 139.91603 12.896473 140.58658 12.759766 141.47852 12.759766 C 142.06446 12.759766 142.63087 12.824836 143.17773 12.955078 C 143.72463 13.085283 144.25195 13.280606 144.75977 13.541016 L 144.75977 11.841797 C 144.26499 11.646471 143.72461 11.500014 143.13867 11.402344 C 142.55273 11.304681 141.9277 11.255859 141.26367 11.255859 L 141.26367 11.253906 z M 175.30078 11.253906 C 173.59504 11.253906 172.25067 11.764974 171.26758 12.787109 C 170.29102 13.809245 169.80273 15.214193 169.80273 16.998047 C 169.80273 18.75586 170.2878 20.152344 171.25781 21.1875 C 172.2279 22.222656 173.53648 22.740234 175.18359 22.740234 C 175.78907 22.740234 176.35872 22.679703 176.89258 22.5625 C 177.43294 22.445335 177.9538 22.269551 178.45508 22.035156 L 178.45508 20.375 C 177.9473 20.65495 177.43623 20.866548 176.92188 21.009766 C 176.4141 21.146471 175.89973 21.214844 175.37891 21.214844 C 174.21353 21.214844 173.30862 20.847021 172.66406 20.111328 C 172.01954 19.369142 171.69727 18.330728 171.69727 16.996094 C 171.69727 15.661456 172.01969 14.626302 172.66406 13.890625 C 173.30862 13.148439 174.21353 12.777344 175.37891 12.777344 C 175.89973 12.777344 176.4141 12.848981 176.92188 12.992188 C 177.43623 13.128893 177.9473 13.337261 178.45508 13.617188 L 178.45508 11.9375 C 177.9603 11.709632 177.44923 11.540379 176.92188 11.429688 C 176.39456 11.312484 175.85414 11.253906 175.30078 11.253906 z M 189.83789 11.253906 C 188.2689 11.253906 187.03842 11.76367 186.14648 12.779297 C 185.26105 13.79492 184.81836 15.201169 184.81836 16.998047 C 184.81836 18.788409 185.26105 20.194658 186.14648 21.216797 C 187.03842 22.23242 188.2689 22.740234 189.83789 22.740234 C 191.40042 22.740234 192.62764 22.23242 193.51953 21.216797 C 194.4115 20.194658 194.85742 18.788409 194.85742 16.998047 C 194.85742 15.201169 194.4115 13.79492 193.51953 12.779297 C 192.62764 11.76367 191.40042 11.253906 189.83789 11.253906 z M 207.08008 11.253906 C 206.29231 11.253906 205.612 11.415353 205.03906 11.734375 C 204.46616 12.053367 203.97461 12.548179 203.56445 13.21875 L 203.56445 11.519531 L 201.75781 11.519531 L 201.75781 22.457031 L 203.56445 22.457031 L 203.56445 16.275391 C 203.56445 15.21419 203.83468 14.374349 204.375 13.755859 C 204.91536 13.130862 205.64453 12.818359 206.5625 12.818359 C 207.33723 12.818359 207.91014 13.072268 208.28125 13.580078 C 208.6524 14.08138 208.83789 14.857425 208.83789 15.912109 L 208.83789 22.457031 L 210.64453 22.457031 L 210.64453 16.275391 C 210.64453 15.207682 210.91476 14.364583 211.45508 13.746094 C 211.99547 13.127604 212.73114 12.818359 213.66211 12.818359 C 214.42384 12.818359 214.99022 13.072268 215.36133 13.580078 C 215.73248 14.087892 215.91797 14.863933 215.91797 15.912109 L 215.91797 22.457031 L 217.72461 22.457031 L 217.72461 15.855469 C 217.72461 14.384114 217.41547 13.24935 216.79688 12.455078 C 216.17839 11.654298 215.29949 11.253906 214.16016 11.253906 C 213.31381 11.253906 212.57811 11.447933 211.95312 11.832031 C 211.3281 12.216145 210.79103 12.809896 210.3418 13.617188 C 210.07496 12.848961 209.66146 12.263021 209.10156 11.859375 C 208.54816 11.455729 207.87435 11.253906 207.08008 11.253906 z M 230.57227 11.253906 C 229.7845 11.253906 229.10419 11.415353 228.53125 11.734375 C 227.95831 12.053367 227.46679 12.548179 227.05664 13.21875 L 227.05664 11.519531 L 225.25 11.519531 L 225.25 22.457031 L 227.05664 22.457031 L 227.05664 16.275391 C 227.05664 15.21419 227.32687 14.374349 227.86719 13.755859 C 228.40758 13.130862 229.13672 12.818359 230.05469 12.818359 C 230.82942 12.818359 231.40233 13.072268 231.77344 13.580078 C 232.14459 14.08138 232.33008 14.857425 232.33008 15.912109 L 232.33008 22.457031 L 234.13672 22.457031 L 234.13672 16.275391 C 234.13672 15.207682 234.40698 14.364583 234.94727 13.746094 C 235.48766 13.127604 236.22332 12.818359 237.1543 12.818359 C 237.91602 12.818359 238.48244 13.072268 238.85352 13.580078 C 239.22467 14.087892 239.41016 14.863933 239.41016 15.912109 L 239.41016 22.457031 L 241.2168 22.457031 L 241.2168 15.855469 C 241.2168 14.384114 240.90766 13.24935 240.28906 12.455078 C 239.67058 11.654298 238.79168 11.253906 237.65234 11.253906 C 236.80599 11.253906 236.0703 11.447933 235.44531 11.832031 C 234.82029 12.216145 234.28318 12.809896 233.83398 13.617188 C 233.56715 12.848961 233.15365 12.263021 232.59375 11.859375 C 232.04039 11.455729 231.36657 11.253906 230.57227 11.253906 z M 270.7793 11.253906 C 270.01761 11.253906 269.34375 11.418602 268.75781 11.744141 C 268.17837 12.069671 267.6738 12.561195 267.24414 13.21875 L 267.24414 11.519531 L 265.4375 11.519531 L 265.4375 22.457031 L 267.24414 22.457031 L 267.24414 16.275391 C 267.24414 15.207682 267.5242 14.364583 268.08398 13.746094 C 268.64388 13.127604 269.40881 12.818359 270.37891 12.818359 C 271.18618 12.818359 271.7917 13.075518 272.19531 13.589844 C 272.59897 14.104166 272.80078 14.876953 272.80078 15.912109 L 272.80078 22.457031 L 274.59766 22.457031 L 274.59766 15.855469 C 274.59766 14.345049 274.27527 13.20052 273.63086 12.425781 C 272.9863 11.64453 272.0358 11.253906 270.7793 11.253906 z M 14.859375 11.517578 L 14.859375 18.138672 C 14.859375 19.642576 15.184906 20.785155 15.835938 21.566406 C 16.48698 22.347653 17.440758 22.738281 18.697266 22.738281 C 19.458984 22.738281 20.126299 22.578788 20.699219 22.259766 C 21.278647 21.934235 21.786461 21.439454 22.222656 20.775391 L 22.222656 22.455078 L 24.019531 22.455078 L 24.019531 11.517578 L 22.222656 11.517578 L 22.222656 17.71875 C 22.222656 18.786459 21.939454 19.629557 21.373047 20.248047 C 20.813151 20.866536 20.048179 21.175781 19.078125 21.175781 C 18.270833 21.175781 17.665365 20.918623 17.261719 20.404297 C 16.858077 19.883463 16.65625 19.105468 16.65625 18.070312 L 16.65625 11.517578 L 14.859375 11.517578 z M 248.625 11.517578 L 248.625 18.138672 C 248.625 19.642576 248.95043 20.785155 249.60156 21.566406 C 250.25262 22.347653 251.20639 22.738281 252.46289 22.738281 C 253.22462 22.738281 253.89191 22.578788 254.46484 22.259766 C 255.04428 21.934235 255.55212 21.439454 255.98828 20.775391 L 255.98828 22.455078 L 257.78516 22.455078 L 257.78516 11.517578 L 255.98828 11.517578 L 255.98828 17.71875 C 255.98828 18.786459 255.70519 19.629557 255.13867 20.248047 C 254.57877 20.866536 253.8138 21.175781 252.84375 21.175781 C 252.03648 21.175781 251.431 20.918623 251.02734 20.404297 C 250.62369 19.883463 250.42188 19.105468 250.42188 18.070312 L 250.42188 11.517578 L 248.625 11.517578 z M 282.20117 11.517578 L 282.20117 22.455078 L 283.99805 22.455078 L 283.99805 11.517578 L 282.20117 11.517578 z M 302.31055 11.519531 L 306.73438 22.28125 L 306.41211 23.101562 C 306.08009 23.973951 305.77734 24.527338 305.50391 24.761719 C 305.23047 24.9961 304.84635 25.113281 304.35156 25.113281 L 303.29688 25.113281 L 303.29688 26.617188 L 304.73242 26.617188 C 305.53973 26.617188 306.18425 26.418619 306.66602 26.021484 C 307.14778 25.624349 307.64257 24.774739 308.15039 23.472656 L 312.95508 11.519531 L 311.05078 11.519531 L 307.63281 20.074219 L 304.21484 11.519531 L 302.31055 11.519531 z M 36.535156 12.757812 C 37.485677 12.757812 38.231122 13.135426 38.771484 13.890625 C 39.318359 14.639323 39.591797 15.674476 39.591797 16.996094 C 39.591797 18.317708 39.318348 19.356118 38.771484 20.111328 C 38.231122 20.860026 37.485677 21.234375 36.535156 21.234375 C 35.584635 21.234375 34.835937 20.860011 34.289062 20.111328 C 33.7487 19.356118 33.478516 18.317708 33.478516 16.996094 C 33.478516 15.674476 33.748715 14.639323 34.289062 13.890625 C 34.835937 13.135419 35.584635 12.757812 36.535156 12.757812 z M 53.035156 12.779297 C 53.920571 12.779297 54.630208 13.072248 55.164062 13.658203 C 55.704346 14.24414 55.981037 15.028645 55.994141 16.011719 L 49.587891 16.021484 C 49.679053 14.992841 50.02409 14.19531 50.623047 13.628906 C 51.228516 13.062499 52.032553 12.779297 53.035156 12.779297 z M 97.925781 12.779297 C 98.811196 12.779297 99.520829 13.072248 100.05469 13.658203 C 100.59497 14.24414 100.87166 15.028645 100.88477 16.011719 L 94.478516 16.021484 C 94.569678 14.992841 94.914715 14.19531 95.513672 13.628906 C 96.119141 13.062499 96.923178 12.779297 97.925781 12.779297 z M 126.08203 12.779297 C 126.96742 12.779297 127.67708 13.072248 128.21094 13.658203 C 128.75175 14.24414 129.02839 15.028645 129.04102 16.011719 L 122.63477 16.021484 C 122.72585 14.992841 123.07098 14.19531 123.66992 13.628906 C 124.2754 13.062499 125.0794 12.779297 126.08203 12.779297 z M 189.83789 12.779297 C 190.79494 12.779297 191.55338 13.160157 192.11328 13.921875 C 192.67318 14.677085 192.95312 15.702474 192.95312 16.998047 C 192.95312 18.300128 192.67307 19.328774 192.11328 20.083984 C 191.55338 20.839194 190.79494 21.216797 189.83789 21.216797 C 188.86787 21.216797 188.10287 20.842437 187.54297 20.09375 C 186.98957 19.33854 186.71289 18.30664 186.71289 16.998047 C 186.71289 15.68945 186.99295 14.660807 187.55273 13.912109 C 188.11263 13.156899 188.87438 12.779297 189.83789 12.779297 z "
       transform="matrix(0.26458333,0,0,0.26458333,70.028213,71.692963)"
       id="path819" />
  </g>
</svg>
